<svg width="8" height="7" viewBox="0 0 8 7" fill="none" xmlns="http://www.w3.org/2000/svg">
<path d="M2.74882 6.2701C2.68597 6.2699 2.62384 6.25677 2.56628 6.23154C2.50873 6.20631 2.45697 6.16951 2.41424 6.12343L0.186737 3.75385C0.10347 3.66511 0.0588642 3.54693 0.0627321 3.42531C0.0666 3.30368 0.118625 3.18858 0.207362 3.10531C0.296099 3.02204 0.414279 2.97744 0.535904 2.9813C0.65753 2.98517 0.772637 3.0372 0.855904 3.12593L2.74424 5.13802L6.59882 0.921351C6.63794 0.87264 6.6866 0.832441 6.74182 0.803221C6.79704 0.774002 6.85765 0.75638 6.91992 0.751437C6.9822 0.746494 7.04483 0.754335 7.10397 0.774478C7.1631 0.794621 7.2175 0.826641 7.26381 0.868572C7.31012 0.910502 7.34737 0.961457 7.37327 1.01831C7.39917 1.07516 7.41318 1.1367 7.41443 1.19916C7.41568 1.26162 7.40414 1.32368 7.38054 1.38152C7.35693 1.43936 7.32175 1.49177 7.27715 1.53552L3.08799 6.11885C3.04566 6.16576 2.99408 6.20342 2.9365 6.22944C2.87893 6.25547 2.81659 6.26931 2.7534 6.2701H2.74882Z" fill="#F6F6F6"/>
</svg>
