<svg width="28" height="28" viewBox="0 0 28 28" fill="none" xmlns="http://www.w3.org/2000/svg">
<path d="M0.666667 4.65094H5.39333C5.55574 5.57956 6.03984 6.42107 6.76048 7.02747C7.48113 7.63387 8.39216 7.9663 9.33333 7.9663C10.2745 7.9663 11.1855 7.63387 11.9062 7.02747C12.6268 6.42107 13.1109 5.57956 13.2733 4.65094H27.3333C27.5101 4.65094 27.6797 4.58058 27.8047 4.45535C27.9298 4.33011 28 4.16026 28 3.98315C28 3.80604 27.9298 3.63619 27.8047 3.51095C27.6797 3.38572 27.5101 3.31536 27.3333 3.31536H13.2733C13.1109 2.38674 12.6268 1.54523 11.9062 0.93883C11.1855 0.332434 10.2745 0 9.33333 0C8.39216 0 7.48113 0.332434 6.76048 0.93883C6.03984 1.54523 5.55574 2.38674 5.39333 3.31536H0.666667C0.489856 3.31536 0.320286 3.38572 0.195262 3.51095C0.0702379 3.63619 0 3.80604 0 3.98315C0 4.16026 0.0702379 4.33011 0.195262 4.45535C0.320286 4.58058 0.489856 4.65094 0.666667 4.65094ZM9.33333 1.31199C9.86075 1.31199 10.3763 1.46865 10.8149 1.76216C11.2534 2.05567 11.5952 2.47285 11.797 2.96094C11.9988 3.44903 12.0517 3.98611 11.9488 4.50427C11.8459 5.02242 11.5919 5.49838 11.219 5.87195C10.846 6.24551 10.3709 6.49992 9.85357 6.60298C9.33629 6.70605 8.80011 6.65315 8.31284 6.45098C7.82557 6.24881 7.4091 5.90644 7.11608 5.46717C6.82306 5.0279 6.66667 4.51146 6.66667 3.98315C6.66667 3.27471 6.94762 2.59529 7.44772 2.09435C7.94781 1.59341 8.62609 1.31199 9.33333 1.31199ZM27.3333 13.3322H22.6067C22.4443 12.4036 21.9602 11.5621 21.2395 10.9557C20.5189 10.3493 19.6078 10.0169 18.6667 10.0169C17.7255 10.0169 16.8145 10.3493 16.0938 10.9557C15.3732 11.5621 14.8891 12.4036 14.7267 13.3322H0.666667C0.489856 13.3322 0.320286 13.4026 0.195262 13.5278C0.0702379 13.653 0 13.8229 0 14C0 14.1771 0.0702379 14.347 0.195262 14.4722C0.320286 14.5974 0.489856 14.6678 0.666667 14.6678H14.7267C14.8891 15.5964 15.3732 16.4379 16.0938 17.0443C16.8145 17.6507 17.7255 17.9832 18.6667 17.9832C19.6078 17.9832 20.5189 17.6507 21.2395 17.0443C21.9602 16.4379 22.4443 15.5964 22.6067 14.6678H27.3333C27.5101 14.6678 27.6797 14.5974 27.8047 14.4722C27.9298 14.347 28 14.1771 28 14C28 13.8229 27.9298 13.653 27.8047 13.5278C27.6797 13.4026 27.5101 13.3322 27.3333 13.3322ZM18.6667 16.6712C18.1392 16.6712 17.6237 16.5145 17.1851 16.221C16.7466 15.9275 16.4048 15.5103 16.203 15.0222C16.0012 14.5341 15.9483 13.997 16.0512 13.4789C16.1541 12.9607 16.4081 12.4848 16.781 12.1112C17.154 11.7376 17.6291 11.4832 18.1464 11.3802C18.6637 11.2771 19.1999 11.33 19.6872 11.5322C20.1744 11.7343 20.5909 12.0767 20.8839 12.516C21.1769 12.9553 21.3333 13.4717 21.3333 14C21.3333 14.7084 21.0524 15.3879 20.5523 15.8888C20.0522 16.3897 19.3739 16.6712 18.6667 16.6712ZM27.3333 23.3491H13.2733C13.1109 22.4204 12.6268 21.5789 11.9062 20.9725C11.1855 20.3661 10.2745 20.0337 9.33333 20.0337C8.39216 20.0337 7.48113 20.3661 6.76048 20.9725C6.03984 21.5789 5.55574 22.4204 5.39333 23.3491H0.666667C0.489856 23.3491 0.320286 23.4194 0.195262 23.5447C0.0702379 23.6699 0 23.8397 0 24.0169C0 24.194 0.0702379 24.3638 0.195262 24.4891C0.320286 24.6143 0.489856 24.6846 0.666667 24.6846H5.39333C5.55574 25.6133 6.03984 26.4548 6.76048 27.0612C7.48113 27.6676 8.39216 28 9.33333 28C10.2745 28 11.1855 27.6676 11.9062 27.0612C12.6268 26.4548 13.1109 25.6133 13.2733 24.6846H27.3333C27.5101 24.6846 27.6797 24.6143 27.8047 24.4891C27.9298 24.3638 28 24.194 28 24.0169C28 23.8397 27.9298 23.6699 27.8047 23.5447C27.6797 23.4194 27.5101 23.3491 27.3333 23.3491ZM9.33333 26.688C8.80592 26.688 8.29034 26.5313 7.85181 26.2378C7.41328 25.9443 7.07149 25.5272 6.86965 25.0391C6.66782 24.551 6.61501 24.0139 6.71791 23.4957C6.8208 22.9776 7.07478 22.5016 7.44772 22.1281C7.82066 21.7545 8.29581 21.5001 8.81309 21.397C9.33038 21.294 9.86655 21.3468 10.3538 21.549C10.8411 21.7512 11.2576 22.0936 11.5506 22.5328C11.8436 22.9721 12 23.4885 12 24.0169C12 24.7253 11.719 25.4047 11.219 25.9056C10.7189 26.4066 10.0406 26.688 9.33333 26.688Z" fill="#CFCFCF"/>
</svg>
