<svg width="1842" height="1781" viewBox="0 0 1842 1781" fill="none" xmlns="http://www.w3.org/2000/svg">
<path d="M556.705 1723.53C403.545 1830.22 185.901 1782.5 70.5835 1616.95C-44.7342 1451.4 -14.0572 1230.71 139.103 1124.02C292.262 1017.33 509.906 1065.05 625.224 1230.6C740.542 1396.15 709.865 1616.85 556.705 1723.53Z" fill="url(#paint0_radial_171_3)" fill-opacity="0.4"/>
<path d="M1695.92 690.707C1534.84 802.913 1305.93 752.725 1184.65 578.609C1063.36 404.494 1095.63 172.384 1256.71 60.1786C1417.8 -52.0272 1646.7 -1.83939 1767.98 172.276C1889.27 346.392 1857 578.501 1695.92 690.707Z" fill="url(#paint1_radial_171_3)" fill-opacity="0.1"/>
<defs>
<radialGradient id="paint0_radial_171_3" cx="0" cy="0" r="1" gradientUnits="userSpaceOnUse" gradientTransform="translate(919.866 889.332) rotate(83.2801) scale(823.332 974.866)">
<stop stop-color="#194FD9"/>
<stop offset="1" stop-color="#0F2985" stop-opacity="0"/>
</radialGradient>
<radialGradient id="paint1_radial_171_3" cx="0" cy="0" r="1" gradientUnits="userSpaceOnUse" gradientTransform="translate(1476.32 375.443) rotate(145.14) scale(355.452 384.21)">
<stop stop-color="#194FD9"/>
<stop offset="1" stop-color="#0F2985" stop-opacity="0"/>
</radialGradient>
</defs>
</svg>
