<svg width="61" height="19" viewBox="0 0 61 19" fill="none" xmlns="http://www.w3.org/2000/svg">
<path d="M0.95459 3.19598V0.54541H14.8807V3.19598H9.48584V18H6.34948V3.19598H0.95459Z" fill="black"/>
<path d="M20.8808 18.2556C19.6024 18.2556 18.4944 17.9744 17.5569 17.4119C16.6194 16.8494 15.8922 16.0625 15.3751 15.0511C14.8638 14.0397 14.6081 12.8579 14.6081 11.5056C14.6081 10.1534 14.8638 8.96871 15.3751 7.95166C15.8922 6.93461 16.6194 6.14484 17.5569 5.58234C18.4944 5.01984 19.6024 4.73859 20.8808 4.73859C22.1592 4.73859 23.2672 5.01984 24.2047 5.58234C25.1422 6.14484 25.8666 6.93461 26.378 7.95166C26.895 8.96871 27.1535 10.1534 27.1535 11.5056C27.1535 12.8579 26.895 14.0397 26.378 15.0511C25.8666 16.0625 25.1422 16.8494 24.2047 17.4119C23.2672 17.9744 22.1592 18.2556 20.8808 18.2556ZM20.8979 15.784C21.591 15.784 22.1706 15.5937 22.6365 15.213C23.1024 14.8267 23.449 14.3096 23.6763 13.6619C23.9092 13.0142 24.0257 12.2926 24.0257 11.4971C24.0257 10.696 23.9092 9.97155 23.6763 9.32382C23.449 8.67041 23.1024 8.15052 22.6365 7.76416C22.1706 7.3778 21.591 7.18462 20.8979 7.18462C20.1876 7.18462 19.5967 7.3778 19.1251 7.76416C18.6592 8.15052 18.3098 8.67041 18.0768 9.32382C17.8496 9.97155 17.7359 10.696 17.7359 11.4971C17.7359 12.2926 17.8496 13.0142 18.0768 13.6619C18.3098 14.3096 18.6592 14.8267 19.1251 15.213C19.5967 15.5937 20.1876 15.784 20.8979 15.784Z" fill="black"/>
<path d="M35.4633 18H29.5485V0.54541H35.5826C37.3156 0.54541 38.8042 0.894842 40.0485 1.59371C41.2985 2.28689 42.2587 3.28405 42.9292 4.58518C43.5996 5.88632 43.9349 7.44314 43.9349 9.25564C43.9349 11.0738 43.5968 12.6363 42.9207 13.9431C42.2502 15.25 41.2815 16.2528 40.0144 16.9517C38.7531 17.6505 37.236 18 35.4633 18ZM32.7104 15.2642H35.3099C36.5258 15.2642 37.54 15.0426 38.3525 14.5994C39.165 14.1505 39.7758 13.4829 40.1849 12.5965C40.594 11.7045 40.7985 10.5909 40.7985 9.25564C40.7985 7.92041 40.594 6.81246 40.1849 5.93177C39.7758 5.04541 39.1707 4.38348 38.3695 3.94598C37.5741 3.5028 33.8923 3.28121 32.7104 3.28121V15.2642Z" fill="black"/>
<path d="M52.153 18.2556C50.8746 18.2556 49.7666 17.9744 48.8291 17.4119C47.8916 16.8494 47.1644 16.0625 46.6473 15.0511C46.136 14.0397 45.8803 12.8579 45.8803 11.5056C45.8803 10.1534 46.136 8.96871 46.6473 7.95166C47.1644 6.93461 47.8916 6.14484 48.8291 5.58234C49.7666 5.01984 50.8746 4.73859 52.153 4.73859C53.4314 4.73859 54.5394 5.01984 55.4769 5.58234C56.4144 6.14484 57.1388 6.93461 57.6502 7.95166C58.1672 8.96871 58.4257 10.1534 58.4257 11.5056C58.4257 12.8579 58.1672 14.0397 57.6502 15.0511C57.1388 16.0625 56.4144 16.8494 55.4769 17.4119C54.5394 17.9744 53.4314 18.2556 52.153 18.2556ZM52.17 15.784C52.8632 15.784 53.4428 15.5937 53.9087 15.213C54.3746 14.8267 54.7212 14.3096 54.9485 13.6619C55.1814 13.0142 55.2979 12.2926 55.2979 11.4971C55.2979 10.696 55.1814 9.97155 54.9485 9.32382C54.7212 8.67041 54.3746 8.15052 53.9087 7.76416C53.4428 7.3778 52.8632 7.18462 52.17 7.18462C51.4598 7.18462 50.8689 7.3778 50.3973 7.76416C49.9314 8.15052 49.582 8.67041 49.349 9.32382C49.1217 9.97155 49.0081 10.696 49.0081 11.4971C49.0081 12.2926 49.1217 13.0142 49.349 13.6619C49.582 14.3096 49.9314 14.8267 50.3973 15.213C50.8689 15.5937 51.4598 15.784 52.17 15.784Z" fill="black"/>
<rect x="32" width="2" height="19" fill="#B3B3B3"/>
<rect x="29" width="3" height="18" fill="#194FD9"/>
</svg>
