<?xml version="1.0" encoding="UTF-8"?>
<!DOCTYPE svg PUBLIC "-//W3C//DTD SVG 1.1//EN" "http://www.w3.org/Graphics/SVG/1.1/DTD/svg11.dtd">
<!-- Creator: CorelDRAW (Versão de avaliação) -->
<svg xmlns="http://www.w3.org/2000/svg" xml:space="preserve" width="42.3332mm" height="42.3332mm" version="1.1" style="shape-rendering:geometricPrecision; text-rendering:geometricPrecision; image-rendering:optimizeQuality; fill-rule:evenodd; clip-rule:evenodd"
viewBox="0 0 4233.32 4233.32"
 xmlns:xlink="http://www.w3.org/1999/xlink"
 xmlns:xodm="http://www.corel.com/coreldraw/odm/2003">
 <defs>
  <style type="text/css">
   <![CDATA[
    .fil1 {fill:#184FD9}
    .fil0 {fill:#FEFEFE}
   ]]>
  </style>
 </defs>
 <g id="Camada_x0020_1">
  <metadata id="CorelCorpID_0Corel-Layer"/>
  <path class="fil0" d="M1736.62 2144.42l1.9 0 0 -26.55 1.89 0 0 -15.16 1.9 0 0 -7.59 1.9 0 0 -7.58 1.89 0 0 -9.48 1.9 0 0 -5.69 1.9 0 0 -5.69 1.89 0 0 -5.68 1.9 0 0 -3.8 1.89 0 0 -3.79 1.9 0 0 -5.68 1.89 0 0 -3.8 1.9 0 0 -1.89 1.9 0 0 -3.8 1.89 0 0 -3.79 1.9 0 0 -1.89 1.89 0 0 -3.79 1.9 0 0 -1.9 1.9 0 0 -1.9 1.89 0 0 -3.79 1.9 0 0 -1.89 1.89 0 0 -1.9 1.9 0 0 -1.9 1.9 0 0 -1.89 1.89 0 0 -1.9 1.9 0 0 -1.89 3.79 0 0 -1.9 1.89 0 0 -1.9 1.9 0 0 -1.89 3.79 0 0 -1.9 3.8 0 0 -1.89 1.89 0 0 -1.9 3.79 0 0 -1.89 3.79 0 0 -1.9 5.69 0 0 -1.9 3.79 0 0 -1.89 9.48 0 0 -1.9 7.59 0 0 -1.9 9.48 0 0 -1.89 34.12 0 0 1.89 9.48 0 0 1.9 5.69 0 0 1.9 7.59 0 0 1.89 5.68 0 0 1.9 3.79 0 0 1.9 5.69 0 0 1.89 1.9 0 0 1.9 3.79 0 0 1.89 3.79 0 0 1.9 1.9 0 0 1.89 1.89 0 0 1.9 3.8 0 0 1.9 1.89 0 0 1.89 1.9 0 0 1.9 1.89 0 0 1.89 1.9 0 0 1.9 1.89 0 0 1.9 1.9 0 0 1.89 1.9 0 0 1.9 1.89 0 0 3.79 1.9 0 0 1.9 1.9 0 0 1.89 1.89 0 0 3.79 1.9 0 0 1.9 1.89 0 0 3.79 1.9 0 0 3.79 1.89 0 0 3.8 1.9 0 0 3.79 1.9 0 0 5.68 1.89 0 0 5.69 1.9 0 0 3.79 1.89 0 0 5.69 1.9 0 0 7.59 1.9 0 0 11.37 1.89 0 0 5.69 1.9 0 0 18.96 1.89 0 0 20.85 1.9 0 0 58.78 -1.9 0 0 26.54 -1.89 0 0 9.48 -1.9 0 0 7.58 -1.89 0 0 11.38 -1.9 0 0 5.69 -1.9 0 0 7.58 -1.89 0 0 5.69 -1.9 0 0 3.79 -1.89 0 0 5.69 -1.9 0 0 3.79 -1.9 0 0 3.79 -1.89 0 0 3.79 -1.9 0 0 3.8 -1.89 0 0 3.79 -1.9 0 0 1.89 -1.89 0 0 3.8 -1.9 0 0 1.89 -1.9 0 0 3.79 -1.89 0 0 1.9 -1.9 0 0 1.9 -1.9 0 0 1.89 -1.89 0 0 1.9 -1.9 0 0 1.89 -1.89 0 0 1.9 -1.9 0 0 1.89 -1.89 0 0 1.9 -1.9 0 0 1.9 -1.9 0 0 1.89 -3.79 0 0 1.9 -1.89 0 0 1.89 -3.8 0 0 1.9 -1.89 0 0 1.9 -3.79 0 0 1.89 -3.8 0 0 1.9 -3.79 0 0 1.89 -5.68 0 0 1.9 -3.8 0 0 1.9 -7.58 0 0 1.89 -9.48 0 0 1.9 -45.5 0 0 -1.9 -11.38 0 0 -1.89 -5.69 0 0 -1.9 -5.68 0 0 -1.9 -5.69 0 0 -1.89 -3.79 0 0 -1.9 -1.9 0 0 -1.89 -3.79 0 0 -1.9 -3.79 0 0 -1.9 -1.9 0 0 -1.89 -1.9 0 0 -1.9 -1.89 0 0 -1.89 -3.79 0 0 -1.9 -1.9 0 0 -1.9 -1.89 0 0 -1.89 -1.9 0 0 -1.9 -1.9 0 0 -1.89 -1.89 0 0 -1.9 -1.9 0 0 -3.79 -1.89 0 0 -1.9 -1.9 0 0 -3.79 -1.9 0 0 -1.89 -1.89 0 0 -3.8 -1.9 0 0 -1.89 -1.89 0 0 -3.79 -1.9 0 0 -3.8 -1.9 0 0 -3.79 -1.89 0 0 -3.79 -1.9 0 0 -3.79 -1.89 0 0 -5.69 -1.9 0 0 -5.69 -1.89 0 0 -5.68 -1.9 0 0 -7.59 -1.9 0 0 -7.58 -1.89 0 0 -7.59 -1.9 0 0 -11.37 -1.9 0 0 -7.59 -1.89 0 0 -24.64 -1.9 0 0 -51.19zm91.01 -252.16l-13.27 0 0 1.9 -15.17 0 0 1.89 -7.59 0 0 1.9 -13.27 0 0 1.89 -7.58 0 0 1.9 -3.79 0 0 1.89 -7.59 0 0 1.9 -3.79 0 0 1.9 -7.58 0 0 1.89 -5.69 0 0 1.9 -3.79 0 0 1.89 -3.79 0 0 1.9 -5.69 0 0 1.9 -3.79 0 0 1.89 -3.79 0 0 1.9 -3.8 0 0 1.89 -1.89 0 0 1.9 -3.79 0 0 1.9 -3.8 0 0 1.89 -3.79 0 0 1.9 -1.89 0 0 1.89 -3.79 0 0 1.9 -1.9 0 0 1.89 -3.79 0 0 1.9 -1.9 0 0 1.9 -1.9 0 0 1.89 -3.79 0 0 1.9 -1.89 0 0 1.9 -1.9 0 0 1.89 -3.79 0 0 1.9 -1.9 0 0 1.89 -1.89 0 0 1.9 -1.9 0 0 1.89 -1.89 0 0 1.9 -1.9 0 0 1.9 -1.9 0 0 1.89 -1.89 0 0 1.9 -1.9 0 0 1.89 -1.89 0 0 1.9 -1.9 0 0 1.9 -1.9 0 0 1.89 -1.89 0 0 3.79 -1.9 0 0 1.9 -1.89 0 0 1.9 -1.9 0 0 1.89 -1.89 0 0 1.9 -1.9 0 0 1.89 -1.9 0 0 3.79 -1.89 0 0 1.9 -1.9 0 0 3.79 -1.9 0 0 1.9 -1.89 0 0 3.79 -1.9 0 0 1.9 -1.89 0 0 3.79 -1.9 0 0 1.89 -1.89 0 0 3.8 -1.9 0 0 3.79 -1.9 0 0 3.79 -1.89 0 0 3.79 -1.9 0 0 3.79 -1.89 0 0 3.8 -1.9 0 0 3.79 -1.9 0 0 5.68 -1.89 0 0 3.8 -1.9 0 0 3.79 -1.89 0 0 5.69 -1.9 0 0 5.68 -1.9 0 0 7.59 -1.89 0 0 7.58 -1.9 0 0 3.8 -1.89 0 0 11.37 -1.9 0 0 9.48 -1.89 0 0 9.48 -1.9 0 0 11.37 -1.9 0 0 37.92 -1.89 0 0 24.65 1.89 0 0 30.34 1.9 0 0 17.06 1.9 0 0 9.48 1.89 0 0 9.48 1.9 0 0 11.37 1.89 0 0 7.59 1.9 0 0 3.79 1.89 0 0 7.58 1.9 0 0 5.69 1.9 0 0 5.69 1.89 0 0 3.79 1.9 0 0 5.69 1.89 0 0 3.79 1.9 0 0 3.79 1.9 0 0 3.79 1.89 0 0 3.8 1.9 0 0 3.79 1.89 0 0 3.79 1.9 0 0 3.79 1.9 0 0 3.79 1.89 0 0 3.79 1.9 0 0 1.9 1.89 0 0 1.9 1.9 0 0 3.79 1.89 0 0 1.89 1.9 0 0 3.8 1.9 0 0 1.89 1.89 0 0 3.79 1.9 0 0 1.9 1.9 0 0 1.89 1.89 0 0 1.9 1.9 0 0 1.9 1.89 0 0 3.79 1.9 0 0 1.9 1.89 0 0 1.89 1.9 0 0 1.9 1.9 0 0 1.89 1.89 0 0 1.9 1.9 0 0 1.89 1.89 0 0 1.9 1.9 0 0 1.9 1.9 0 0 1.89 1.89 0 0 1.9 1.9 0 0 1.89 1.89 0 0 1.9 1.9 0 0 1.9 1.9 0 0 1.89 3.79 0 0 1.9 1.89 0 0 1.89 1.9 0 0 1.9 3.79 0 0 1.9 1.9 0 0 1.89 1.89 0 0 1.9 3.8 0 0 1.89 1.89 0 0 1.9 3.79 0 0 1.89 1.9 0 0 1.9 3.79 0 0 1.9 3.79 0 0 1.89 3.79 0 0 1.9 1.9 0 0 1.9 3.79 0 0 1.89 5.69 0 0 1.9 3.79 0 0 1.89 3.79 0 0 1.9 3.79 0 0 1.89 5.69 0 0 1.9 3.8 0 0 1.9 5.68 0 0 1.89 7.59 0 0 1.9 5.68 0 0 1.89 7.59 0 0 1.9 9.48 0 0 1.9 5.68 0 0 1.89 11.38 0 0 1.9 15.17 0 0 1.89 26.54 0 0 1.9 45.5 0 0 -1.9 11.38 0 0 -1.89 9.48 0 0 -1.9 17.06 0 0 -1.89 7.59 0 0 -1.9 11.37 0 0 -1.9 3.79 0 0 -1.89 5.69 0 0 -1.9 7.58 0 0 -1.89 5.69 0 0 -1.9 5.69 0 0 -1.9 3.79 0 0 -1.89 3.79 0 0 -1.9 5.69 0 0 -1.89 3.79 0 0 -1.9 3.79 0 0 -1.89 3.8 0 0 -1.9 3.79 0 0 -1.9 1.89 0 0 -1.89 3.8 0 0 -1.9 3.79 0 0 -1.9 3.79 0 0 -1.89 1.9 0 0 -1.9 3.79 0 0 -1.89 1.89 0 0 -1.9 1.9 0 0 -1.89 3.79 0 0 -1.9 1.9 0 0 -1.9 3.79 0 0 -1.89 1.9 0 0 -1.9 1.89 0 0 -1.89 1.9 0 0 -1.9 1.89 0 0 -1.9 1.9 0 0 -1.89 3.79 0 0 -1.9 1.9 0 0 -1.89 1.89 0 0 -1.9 1.9 0 0 -1.9 1.89 0 0 -1.89 1.9 0 0 -1.9 1.9 0 0 -1.89 1.89 0 0 -1.9 1.9 0 0 -3.79 1.89 0 0 -1.9 1.9 0 0 -1.89 1.9 0 0 -1.9 1.89 0 0 -1.9 1.9 0 0 -1.89 1.89 0 0 -3.79 1.9 0 0 -1.9 1.89 0 0 -3.79 1.9 0 0 -1.9 1.9 0 0 -1.89 1.89 0 0 -3.79 1.9 0 0 -1.9 1.9 0 0 -3.79 1.89 0 0 -3.79 1.9 0 0 -1.9 1.89 0 0 -3.79 1.9 0 0 -3.79 1.89 0 0 -3.79 1.9 0 0 -3.8 1.9 0 0 -3.79 1.89 0 0 -3.79 1.9 0 0 -5.69 1.89 0 0 -3.79 1.9 0 0 -5.69 1.9 0 0 -3.79 1.89 0 0 -7.58 1.9 0 0 -3.8 1.89 0 0 -7.58 1.9 0 0 -5.69 1.9 0 0 -7.58 1.89 0 0 -11.38 1.9 0 0 -7.58 1.89 0 0 -17.06 1.9 0 0 -13.27 1.89 0 0 -66.36 -1.89 0 0 -18.96 -1.9 0 0 -11.38 -1.89 0 0 -9.48 -1.9 0 0 -15.16 -1.89 0 0 -5.69 -1.9 0 0 -5.69 -1.9 0 0 -7.58 -1.89 0 0 -5.69 -1.9 0 0 -7.58 -1.89 0 0 -5.69 -1.9 0 0 -3.8 -1.9 0 0 -5.68 -1.89 0 0 -3.79 -1.9 0 0 -5.69 -1.89 0 0 -3.79 -1.9 0 0 -3.8 -1.9 0 0 -3.79 -1.89 0 0 -1.89 -1.9 0 0 -3.8 -1.89 0 0 -3.79 -1.9 0 0 -3.79 -1.89 0 0 -1.89 -1.9 0 0 -3.8 -1.9 0 0 -1.89 -1.89 0 0 -3.8 -1.9 0 0 -1.89 -1.9 0 0 -3.79 -1.89 0 0 -1.9 -1.9 0 0 -1.89 -1.89 0 0 -1.9 -1.9 0 0 -3.79 -1.89 0 0 -1.9 -1.9 0 0 -1.89 -1.9 0 0 -1.9 -1.89 0 0 -1.9 -1.9 0 0 -1.89 -1.89 0 0 -1.9 -1.9 0 0 -1.89 -1.9 0 0 -1.9 -1.89 0 0 -1.9 -1.9 0 0 -1.89 -1.89 0 0 -1.9 -1.9 0 0 -1.89 -1.9 0 0 -1.9 -1.89 0 0 -1.89 -1.9 0 0 -1.9 -3.79 0 0 -1.9 -1.89 0 0 -1.89 -1.9 0 0 -1.9 -3.79 0 0 -1.9 -1.9 0 0 -1.89 -3.79 0 0 -1.9 -1.9 0 0 -1.89 -3.79 0 0 -1.9 -1.89 0 0 -1.89 -3.8 0 0 -1.9 -3.79 0 0 -1.9 -3.79 0 0 -1.89 -3.79 0 0 -1.9 -3.79 0 0 -1.89 -3.8 0 0 -1.9 -3.79 0 0 -1.9 -5.68 0 0 -1.89 -3.8 0 0 -1.9 -5.68 0 0 -1.89 -3.8 0 0 -1.9 -7.58 0 0 -1.9 -7.58 0 0 -1.89 -3.79 0 0 -1.9 -7.59 0 0 -1.89 -11.37 0 0 -1.9 -9.48 0 0 -1.89 -15.17 0 0 -1.9 -15.17 0 0 -1.9 -68.25 0 0 1.9z"/>
  <path class="fil0" d="M3334.89 2210.78l-1.9 0 0 15.16 -1.89 0 0 13.27 -1.9 0 0 9.48 -1.9 0 0 3.8 -1.89 0 0 9.48 -1.9 0 0 5.68 -1.89 0 0 3.79 -1.9 0 0 5.69 -1.9 0 0 3.8 -1.89 0 0 3.79 -1.9 0 0 5.68 -1.89 0 0 3.8 -1.9 0 0 1.89 -1.89 0 0 3.79 -1.9 0 0 1.9 -1.9 0 0 3.79 -1.89 0 0 1.9 -1.9 0 0 1.89 -1.9 0 0 3.8 -1.89 0 0 1.89 -1.9 0 0 1.9 -1.89 0 0 1.89 -1.9 0 0 1.9 -1.89 0 0 1.89 -1.9 0 0 1.9 -1.9 0 0 1.9 -3.79 0 0 1.89 -1.89 0 0 1.9 -1.9 0 0 1.89 -3.79 0 0 1.9 -3.79 0 0 1.9 -1.9 0 0 1.89 -3.79 0 0 1.9 -3.79 0 0 1.89 -5.69 0 0 1.9 -7.59 0 0 1.9 -7.58 0 0 1.89 -9.48 0 0 1.9 -47.4 0 0 -1.9 -7.58 0 0 -1.89 -5.69 0 0 -1.9 -5.69 0 0 -1.9 -3.79 0 0 -1.89 -3.79 0 0 -1.9 -3.79 0 0 -1.89 -1.9 0 0 -1.9 -3.79 0 0 -1.9 -1.9 0 0 -1.89 -3.79 0 0 -1.9 -1.89 0 0 -1.89 -1.9 0 0 -1.9 -1.89 0 0 -1.9 -1.9 0 0 -1.89 -1.9 0 0 -1.9 -1.89 0 0 -1.89 -1.9 0 0 -1.9 -1.89 0 0 -1.89 -1.9 0 0 -3.8 -1.9 0 0 -1.89 -1.89 0 0 -1.9 -1.9 0 0 -3.79 -1.89 0 0 -3.79 -1.9 0 0 -1.9 -1.9 0 0 -3.79 -1.89 0 0 -3.79 -1.9 0 0 -3.79 -1.89 0 0 -3.79 -1.9 0 0 -5.69 -1.89 0 0 -5.69 -1.9 0 0 -5.69 -1.9 0 0 -3.79 -1.89 0 0 -9.48 -1.9 0 0 -5.69 -1.9 0 0 -9.48 -1.89 0 0 -9.48 -1.9 0 0 -15.16 -1.89 0 0 -73.95 1.89 0 0 -26.54 1.9 0 0 -11.37 1.89 0 0 -9.49 1.9 0 0 -7.58 1.9 0 0 -3.79 1.89 0 0 -7.58 1.9 0 0 -5.69 1.9 0 0 -5.69 1.89 0 0 -3.79 1.9 0 0 -3.79 1.89 0 0 -3.79 1.9 0 0 -3.8 1.89 0 0 -3.79 1.9 0 0 -3.79 1.9 0 0 -1.9 1.89 0 0 -3.79 1.9 0 0 -1.89 1.89 0 0 -3.8 1.9 0 0 -1.89 1.9 0 0 -1.9 1.89 0 0 -1.89 1.9 0 0 -1.9 1.89 0 0 -1.9 1.9 0 0 -1.89 1.9 0 0 -1.9 1.89 0 0 -1.89 1.9 0 0 -1.9 3.79 0 0 -1.9 1.89 0 0 -1.89 1.9 0 0 -1.9 3.79 0 0 -1.89 3.8 0 0 -1.9 3.79 0 0 -1.89 3.79 0 0 -1.9 3.79 0 0 -1.9 3.79 0 0 -1.89 7.59 0 0 -1.9 7.58 0 0 -1.9 13.27 0 0 -1.89 32.23 0 0 1.89 11.38 0 0 1.9 7.58 0 0 1.9 5.69 0 0 1.89 3.79 0 0 1.9 5.69 0 0 1.9 3.79 0 0 1.89 3.79 0 0 1.9 3.79 0 0 1.89 1.9 0 0 1.9 3.79 0 0 1.89 1.9 0 0 1.9 1.89 0 0 1.9 3.8 0 0 1.89 1.89 0 0 1.9 1.9 0 0 1.89 1.89 0 0 1.9 1.9 0 0 1.9 1.89 0 0 1.89 1.9 0 0 3.79 1.9 0 0 1.9 1.89 0 0 1.9 1.9 0 0 3.79 1.9 0 0 1.89 1.89 0 0 3.79 1.9 0 0 3.8 1.89 0 0 3.79 1.9 0 0 3.79 1.89 0 0 3.79 1.9 0 0 5.69 1.9 0 0 5.69 1.89 0 0 5.69 1.9 0 0 7.58 1.89 0 0 7.58 1.9 0 0 9.48 1.9 0 0 11.38 1.89 0 0 15.17 1.9 0 0 17.06 1.89 0 0 56.88 -1.89 0 0 15.17zm-155.47 -318.52l-18.96 0 0 1.9 -9.48 0 0 1.89 -7.58 0 0 1.9 -13.27 0 0 1.89 -7.59 0 0 1.9 -5.68 0 0 1.89 -7.59 0 0 1.9 -3.79 0 0 1.9 -7.58 0 0 1.89 -3.8 0 0 1.9 -5.68 0 0 1.89 -3.79 0 0 1.9 -3.8 0 0 1.9 -3.79 0 0 1.89 -3.79 0 0 1.9 -3.79 0 0 1.89 -3.79 0 0 1.9 -1.9 0 0 1.9 -3.79 0 0 1.89 -3.79 0 0 1.9 -3.79 0 0 1.89 -1.9 0 0 1.9 -3.79 0 0 1.89 -1.9 0 0 1.9 -1.9 0 0 1.9 -3.79 0 0 1.89 -1.89 0 0 1.9 -1.9 0 0 1.9 -3.79 0 0 1.89 -1.9 0 0 1.9 -1.89 0 0 1.89 -1.9 0 0 1.9 -1.89 0 0 1.89 -1.9 0 0 1.9 -1.9 0 0 1.9 -1.89 0 0 1.89 -1.9 0 0 1.9 -1.89 0 0 1.89 -1.9 0 0 1.9 -1.9 0 0 1.9 -1.89 0 0 1.89 -1.9 0 0 1.9 -1.89 0 0 1.89 -1.9 0 0 1.9 -1.89 0 0 3.79 -1.9 0 0 1.9 -1.9 0 0 1.89 -1.89 0 0 1.9 -1.9 0 0 3.79 -1.9 0 0 1.9 -1.89 0 0 3.79 -1.9 0 0 1.9 -1.89 0 0 3.79 -1.9 0 0 1.89 -1.89 0 0 3.79 -1.9 0 0 3.8 -1.9 0 0 1.89 -1.89 0 0 3.79 -1.9 0 0 3.8 -1.89 0 0 3.79 -1.9 0 0 3.79 -1.9 0 0 3.79 -1.89 0 0 5.69 -1.9 0 0 3.79 -1.89 0 0 5.69 -1.9 0 0 3.79 -1.9 0 0 7.58 -1.89 0 0 3.8 -1.9 0 0 7.58 -1.89 0 0 7.59 -1.9 0 0 3.79 -1.89 0 0 15.16 -1.9 0 0 7.59 -1.9 0 0 11.37 -1.89 0 0 20.86 -1.9 0 0 68.25 1.9 0 0 18.96 1.89 0 0 9.48 1.9 0 0 7.58 1.9 0 0 9.48 1.89 0 0 9.48 1.9 0 0 7.59 1.89 0 0 7.58 1.9 0 0 7.59 1.89 0 0 3.79 1.9 0 0 5.68 1.9 0 0 3.8 1.89 0 0 3.79 1.9 0 0 5.69 1.89 0 0 3.79 1.9 0 0 3.79 1.9 0 0 3.79 1.89 0 0 3.79 1.9 0 0 3.79 1.89 0 0 3.8 1.9 0 0 3.79 1.9 0 0 1.89 1.89 0 0 3.8 1.9 0 0 1.89 1.89 0 0 1.9 1.9 0 0 3.79 1.89 0 0 1.9 1.9 0 0 3.79 1.9 0 0 1.89 1.89 0 0 1.9 1.9 0 0 3.79 1.9 0 0 1.9 1.89 0 0 1.89 1.9 0 0 1.9 1.89 0 0 1.9 1.9 0 0 1.89 1.89 0 0 3.79 1.9 0 0 1.9 1.9 0 0 1.89 1.89 0 0 1.9 1.9 0 0 1.9 3.79 0 0 1.89 1.9 0 0 1.9 1.89 0 0 1.89 1.9 0 0 1.9 1.89 0 0 1.9 1.9 0 0 1.89 1.9 0 0 1.9 3.79 0 0 1.89 1.89 0 0 1.9 1.9 0 0 1.9 3.79 0 0 1.89 1.9 0 0 1.9 1.89 0 0 1.89 3.8 0 0 1.9 1.89 0 0 1.89 3.79 0 0 1.9 3.79 0 0 1.9 1.9 0 0 1.89 3.79 0 0 1.9 3.79 0 0 1.9 3.8 0 0 1.89 3.79 0 0 1.9 3.79 0 0 1.89 5.69 0 0 1.9 3.79 0 0 1.89 3.79 0 0 1.9 5.69 0 0 1.9 7.58 0 0 1.89 3.79 0 0 1.9 5.69 0 0 1.89 5.69 0 0 1.9 9.48 0 0 1.9 11.37 0 0 1.89 13.28 0 0 1.9 13.27 0 0 1.89 77.73 0 0 -1.89 15.17 0 0 -1.9 11.37 0 0 -1.89 13.28 0 0 -1.9 3.79 0 0 -1.9 9.48 0 0 -1.89 7.58 0 0 -1.9 3.79 0 0 -1.89 5.69 0 0 -1.9 5.69 0 0 -1.9 5.69 0 0 -1.89 3.79 0 0 -1.9 3.79 0 0 -1.89 5.69 0 0 -1.9 3.79 0 0 -1.89 3.79 0 0 -1.9 1.9 0 0 -1.9 3.79 0 0 -1.89 3.79 0 0 -1.9 3.79 0 0 -1.9 1.9 0 0 -1.89 3.79 0 0 -1.9 1.9 0 0 -1.89 3.79 0 0 -1.9 1.89 0 0 -1.89 1.9 0 0 -1.9 3.79 0 0 -1.9 1.9 0 0 -1.89 3.79 0 0 -1.9 1.9 0 0 -1.89 1.89 0 0 -1.9 1.9 0 0 -1.9 1.89 0 0 -1.89 1.9 0 0 -1.9 1.89 0 0 -1.89 1.9 0 0 -1.9 1.9 0 0 -1.9 3.79 0 0 -1.89 1.9 0 0 -3.79 1.89 0 0 -1.9 1.9 0 0 -1.89 1.89 0 0 -1.9 1.9 0 0 -1.9 1.89 0 0 -1.89 1.9 0 0 -3.8 1.9 0 0 -1.89 1.89 0 0 -1.9 1.9 0 0 -1.89 1.89 0 0 -3.79 1.9 0 0 -1.9 1.9 0 0 -3.79 1.89 0 0 -1.9 1.9 0 0 -1.89 1.89 0 0 -3.8 1.9 0 0 -1.89 1.9 0 0 -3.79 1.89 0 0 -3.8 1.9 0 0 -3.79 1.89 0 0 -3.79 1.9 0 0 -3.79 1.89 0 0 -3.79 1.9 0 0 -3.79 1.9 0 0 -3.8 1.89 0 0 -5.68 1.9 0 0 -3.8 1.89 0 0 -5.68 1.9 0 0 -5.69 1.9 0 0 -3.79 1.89 0 0 -7.59 1.9 0 0 -7.58 1.89 0 0 -3.79 1.9 0 0 -11.38 1.9 0 0 -7.58 1.89 0 0 -15.17 1.9 0 0 -13.27 1.89 0 0 -77.73 -1.89 0 0 -24.65 -1.9 0 0 -7.58 -1.89 0 0 -15.17 -1.9 0 0 -7.58 -1.9 0 0 -7.59 -1.89 0 0 -3.79 -1.9 0 0 -7.59 -1.89 0 0 -5.68 -1.9 0 0 -7.59 -1.9 0 0 -3.79 -1.89 0 0 -5.69 -1.9 0 0 -3.79 -1.89 0 0 -5.69 -1.9 0 0 -3.79 -1.9 0 0 -3.79 -1.89 0 0 -3.79 -1.9 0 0 -3.79 -1.89 0 0 -3.8 -1.9 0 0 -3.79 -1.89 0 0 -1.89 -1.9 0 0 -3.79 -1.9 0 0 -1.9 -1.89 0 0 -3.79 -1.9 0 0 -1.9 -1.89 0 0 -3.79 -1.9 0 0 -1.9 -1.9 0 0 -3.79 -1.89 0 0 -1.89 -1.9 0 0 -1.9 -1.89 0 0 -1.9 -1.9 0 0 -1.89 -1.9 0 0 -3.79 -1.89 0 0 -1.9 -1.9 0 0 -1.9 -1.89 0 0 -1.89 -1.9 0 0 -1.9 -1.89 0 0 -1.89 -1.9 0 0 -1.9 -1.9 0 0 -1.9 -1.89 0 0 -1.89 -1.9 0 0 -1.9 -1.9 0 0 -1.89 -1.89 0 0 -1.9 -1.9 0 0 -1.89 -3.79 0 0 -1.9 -1.89 0 0 -1.9 -1.9 0 0 -1.89 -3.79 0 0 -1.9 -1.9 0 0 -1.9 -3.79 0 0 -1.89 -1.9 0 0 -1.9 -1.89 0 0 -1.89 -3.79 0 0 -1.9 -3.8 0 0 -1.89 -3.79 0 0 -1.9 -3.79 0 0 -1.9 -1.89 0 0 -1.89 -3.8 0 0 -1.9 -3.79 0 0 -1.89 -3.79 0 0 -1.9 -5.69 0 0 -1.9 -3.79 0 0 -1.89 -3.79 0 0 -1.9 -5.69 0 0 -1.89 -5.69 0 0 -1.9 -7.58 0 0 -1.9 -3.79 0 0 -1.89 -7.59 0 0 -1.9 -9.48 0 0 -1.89 -3.79 0 0 -1.9 -13.27 0 0 -1.89 -11.38 0 0 -1.9 -20.85 0 0 -1.9 -66.36 0 0 1.9z"/>
  <polygon class="fil0" points="944.13,1850.55 1167.85,1850.55 1167.85,2436.39 1313.83,2436.39 1313.83,1850.55 1539.45,1850.55 1539.45,1738.69 944.13,1738.69 "/>
  <polygon class="fil0" points="2434.32,1850.55 2496.89,1850.55 2496.89,1852.44 2529.12,1852.44 2529.12,1854.34 2540.5,1854.34 2540.5,1856.24 2551.87,1856.24 2551.87,1858.13 2557.56,1858.13 2557.56,1860.03 2568.93,1860.03 2568.93,1861.92 2574.62,1861.92 2574.62,1863.82 2580.31,1863.82 2580.31,1865.72 2586,1865.72 2586,1867.61 2589.79,1867.61 2589.79,1869.51 2595.48,1869.51 2595.48,1871.4 2599.27,1871.4 2599.27,1873.3 2603.06,1873.3 2603.06,1875.2 2606.85,1875.2 2606.85,1877.09 2610.65,1877.09 2610.65,1878.99 2614.44,1878.99 2614.44,1880.88 2618.23,1880.88 2618.23,1882.78 2620.12,1882.78 2620.12,1884.67 2623.92,1884.67 2623.92,1886.57 2625.81,1886.57 2625.81,1888.47 2629.6,1888.47 2629.6,1890.36 2631.5,1890.36 2631.5,1892.26 2635.29,1892.26 2635.29,1894.16 2637.19,1894.16 2637.19,1896.05 2639.08,1896.05 2639.08,1897.95 2640.98,1897.95 2640.98,1899.84 2644.77,1899.84 2644.77,1901.74 2646.67,1901.74 2646.67,1903.63 2648.56,1903.63 2648.56,1905.53 2650.46,1905.53 2650.46,1907.43 2652.35,1907.43 2652.35,1909.32 2654.25,1909.32 2654.25,1911.22 2656.15,1911.22 2656.15,1913.11 2658.04,1913.11 2658.04,1915.01 2659.94,1915.01 2659.94,1916.91 2661.84,1916.91 2661.84,1920.7 2663.73,1920.7 2663.73,1922.59 2665.63,1922.59 2665.63,1924.49 2667.52,1924.49 2667.52,1926.39 2669.42,1926.39 2669.42,1928.28 2671.31,1928.28 2671.31,1932.07 2673.21,1932.07 2673.21,1933.97 2675.11,1933.97 2675.11,1937.76 2677,1937.76 2677,1939.66 2678.9,1939.66 2678.9,1943.45 2680.79,1943.45 2680.79,1947.24 2682.69,1947.24 2682.69,1951.03 2684.59,1951.03 2684.59,1952.93 2686.48,1952.93 2686.48,1956.72 2688.38,1956.72 2688.38,1960.51 2690.27,1960.51 2690.27,1966.2 2692.17,1966.2 2692.17,1969.99 2694.07,1969.99 2694.07,1975.68 2695.96,1975.68 2695.96,1979.47 2697.86,1979.47 2697.86,1983.26 2699.75,1983.26 2699.75,1990.85 2701.65,1990.85 2701.65,1996.54 2703.54,1996.54 2703.54,2004.12 2705.44,2004.12 2705.44,2013.6 2707.34,2013.6 2707.34,2023.08 2709.23,2023.08 2709.23,2038.24 2711.13,2038.24 2711.13,2053.41 2713.03,2053.41 2713.03,2114.08 2711.13,2114.08 2711.13,2121.67 2709.23,2121.67 2709.23,2142.52 2707.34,2142.52 2707.34,2148.21 2705.44,2148.21 2705.44,2161.48 2703.54,2161.48 2703.54,2165.27 2701.65,2165.27 2701.65,2172.86 2699.75,2172.86 2699.75,2180.44 2697.86,2180.44 2697.86,2186.13 2695.96,2186.13 2695.96,2191.82 2694.07,2191.82 2694.07,2197.5 2692.17,2197.5 2692.17,2201.3 2690.27,2201.3 2690.27,2206.98 2688.38,2206.98 2688.38,2210.78 2686.48,2210.78 2686.48,2214.57 2684.59,2214.57 2684.59,2218.36 2682.69,2218.36 2682.69,2222.15 2680.79,2222.15 2680.79,2225.94 2678.9,2225.94 2678.9,2227.84 2677,2227.84 2677,2231.63 2675.11,2231.63 2675.11,2233.53 2673.21,2233.53 2673.21,2237.32 2671.31,2237.32 2671.31,2241.11 2669.42,2241.11 2669.42,2243.01 2667.52,2243.01 2667.52,2244.9 2665.63,2244.9 2665.63,2248.69 2663.73,2248.69 2663.73,2250.59 2661.84,2250.59 2661.84,2252.49 2659.94,2252.49 2659.94,2256.28 2658.04,2256.28 2658.04,2258.17 2656.15,2258.17 2656.15,2260.07 2654.25,2260.07 2654.25,2261.97 2652.35,2261.97 2652.35,2263.86 2650.46,2263.86 2650.46,2265.76 2648.56,2265.76 2648.56,2267.65 2646.67,2267.65 2646.67,2269.55 2644.77,2269.55 2644.77,2271.44 2642.88,2271.44 2642.88,2273.34 2640.98,2273.34 2640.98,2275.24 2639.08,2275.24 2639.08,2277.13 2637.19,2277.13 2637.19,2279.03 2635.29,2279.03 2635.29,2280.93 2631.5,2280.93 2631.5,2282.82 2629.6,2282.82 2629.6,2284.72 2627.71,2284.72 2627.71,2286.61 2625.81,2286.61 2625.81,2288.51 2622.02,2288.51 2622.02,2290.4 2620.12,2290.4 2620.12,2292.3 2616.33,2292.3 2616.33,2294.2 2612.54,2294.2 2612.54,2296.09 2610.65,2296.09 2610.65,2297.99 2606.85,2297.99 2606.85,2299.88 2603.06,2299.88 2603.06,2301.78 2599.27,2301.78 2599.27,2303.68 2595.48,2303.68 2595.48,2305.57 2591.69,2305.57 2591.69,2307.47 2586,2307.47 2586,2309.36 2580.31,2309.36 2580.31,2311.26 2576.52,2311.26 2576.52,2313.16 2570.83,2313.16 2570.83,2315.05 2563.25,2315.05 2563.25,2316.95 2555.66,2316.95 2555.66,2318.84 2542.39,2318.84 2542.39,2320.74 2531.02,2320.74 2531.02,2322.63 2434.32,2322.63 2434.32,2434.49 2559.46,2434.49 2559.46,2432.6 2576.52,2432.6 2576.52,2430.7 2589.79,2430.7 2589.79,2428.81 2597.37,2428.81 2597.37,2426.91 2606.85,2426.91 2606.85,2425.01 2618.23,2425.01 2618.23,2423.12 2625.81,2423.12 2625.81,2421.22 2629.6,2421.22 2629.6,2419.33 2637.19,2419.33 2637.19,2417.43 2642.88,2417.43 2642.88,2415.54 2648.56,2415.54 2648.56,2413.64 2654.25,2413.64 2654.25,2411.74 2658.04,2411.74 2658.04,2409.85 2663.73,2409.85 2663.73,2407.95 2667.52,2407.95 2667.52,2406.05 2671.31,2406.05 2671.31,2404.16 2677,2404.16 2677,2402.26 2680.79,2402.26 2680.79,2400.37 2684.59,2400.37 2684.59,2398.47 2688.38,2398.47 2688.38,2396.58 2692.17,2396.58 2692.17,2394.68 2695.96,2394.68 2695.96,2392.78 2699.75,2392.78 2699.75,2390.89 2701.65,2390.89 2701.65,2388.99 2705.44,2388.99 2705.44,2387.1 2709.23,2387.1 2709.23,2385.2 2713.03,2385.2 2713.03,2383.3 2714.92,2383.3 2714.92,2381.41 2718.71,2381.41 2718.71,2379.51 2720.61,2379.51 2720.61,2377.62 2724.4,2377.62 2724.4,2375.72 2726.3,2375.72 2726.3,2373.82 2730.09,2373.82 2730.09,2371.93 2731.98,2371.93 2731.98,2370.03 2733.88,2370.03 2733.88,2368.14 2737.67,2368.14 2737.67,2366.24 2739.57,2366.24 2739.57,2364.35 2741.46,2364.35 2741.46,2362.45 2743.36,2362.45 2743.36,2360.55 2745.26,2360.55 2745.26,2358.66 2749.05,2358.66 2749.05,2356.76 2750.94,2356.76 2750.94,2354.86 2752.84,2354.86 2752.84,2352.97 2754.73,2352.97 2754.73,2351.07 2756.63,2351.07 2756.63,2349.18 2758.53,2349.18 2758.53,2347.28 2760.42,2347.28 2760.42,2345.39 2762.32,2345.39 2762.32,2343.49 2764.22,2343.49 2764.22,2341.59 2766.11,2341.59 2766.11,2339.7 2768.01,2339.7 2768.01,2337.8 2769.9,2337.8 2769.9,2335.91 2771.8,2335.91 2771.8,2334.01 2773.69,2334.01 2773.69,2332.11 2775.59,2332.11 2775.59,2330.22 2777.49,2330.22 2777.49,2328.32 2779.38,2328.32 2779.38,2324.53 2781.28,2324.53 2781.28,2322.63 2783.17,2322.63 2783.17,2320.74 2785.07,2320.74 2785.07,2318.84 2786.97,2318.84 2786.97,2315.05 2788.86,2315.05 2788.86,2313.16 2790.76,2313.16 2790.76,2311.26 2792.65,2311.26 2792.65,2307.47 2794.55,2307.47 2794.55,2305.57 2796.45,2305.57 2796.45,2303.68 2798.34,2303.68 2798.34,2299.88 2800.24,2299.88 2800.24,2297.99 2802.13,2297.99 2802.13,2294.2 2804.03,2294.2 2804.03,2292.3 2805.92,2292.3 2805.92,2288.51 2807.82,2288.51 2807.82,2284.72 2809.72,2284.72 2809.72,2282.82 2811.61,2282.82 2811.61,2279.03 2813.51,2279.03 2813.51,2275.24 2815.41,2275.24 2815.41,2271.44 2817.3,2271.44 2817.3,2267.65 2819.2,2267.65 2819.2,2263.86 2821.09,2263.86 2821.09,2260.07 2822.99,2260.07 2822.99,2256.28 2824.88,2256.28 2824.88,2252.49 2826.78,2252.49 2826.78,2248.69 2828.68,2248.69 2828.68,2243.01 2830.57,2243.01 2830.57,2239.21 2832.47,2239.21 2832.47,2233.53 2834.36,2233.53 2834.36,2229.74 2836.26,2229.74 2836.26,2224.05 2838.16,2224.05 2838.16,2218.36 2840.05,2218.36 2840.05,2212.67 2841.95,2212.67 2841.95,2206.98 2843.84,2206.98 2843.84,2197.5 2845.74,2197.5 2845.74,2193.71 2847.64,2193.71 2847.64,2186.13 2849.53,2186.13 2849.53,2172.86 2851.43,2172.86 2851.43,2163.38 2853.32,2163.38 2853.32,2157.69 2855.22,2157.69 2855.22,2142.52 2857.11,2142.52 2857.11,2127.36 2859.01,2127.36 2859.01,2040.14 2857.11,2040.14 2857.11,2019.29 2855.22,2019.29 2855.22,2004.12 2853.32,2004.12 2853.32,1996.54 2851.43,1996.54 2851.43,1985.16 2849.53,1985.16 2849.53,1979.47 2847.64,1979.47 2847.64,1971.89 2845.74,1971.89 2845.74,1962.41 2843.84,1962.41 2843.84,1954.82 2841.95,1954.82 2841.95,1951.03 2840.05,1951.03 2840.05,1945.35 2838.16,1945.35 2838.16,1939.66 2836.26,1939.66 2836.26,1933.97 2834.36,1933.97 2834.36,1930.18 2832.47,1930.18 2832.47,1924.49 2830.57,1924.49 2830.57,1920.7 2828.68,1920.7 2828.68,1916.91 2826.78,1916.91 2826.78,1913.11 2824.88,1913.11 2824.88,1907.43 2822.99,1907.43 2822.99,1903.63 2821.09,1903.63 2821.09,1901.74 2819.2,1901.74 2819.2,1897.95 2817.3,1897.95 2817.3,1894.16 2815.41,1894.16 2815.41,1890.36 2813.51,1890.36 2813.51,1886.57 2811.61,1886.57 2811.61,1884.67 2809.72,1884.67 2809.72,1880.88 2807.82,1880.88 2807.82,1878.99 2805.92,1878.99 2805.92,1875.2 2804.03,1875.2 2804.03,1873.3 2802.13,1873.3 2802.13,1869.51 2800.24,1869.51 2800.24,1867.61 2798.34,1867.61 2798.34,1865.72 2796.45,1865.72 2796.45,1861.92 2794.55,1861.92 2794.55,1860.03 2792.65,1860.03 2792.65,1858.13 2790.76,1858.13 2790.76,1854.34 2788.86,1854.34 2788.86,1852.44 2786.97,1852.44 2786.97,1850.55 2785.07,1850.55 2785.07,1848.65 2783.17,1848.65 2783.17,1846.76 2781.28,1846.76 2781.28,1844.86 2779.38,1844.86 2779.38,1842.97 2777.49,1842.97 2777.49,1839.17 2775.59,1839.17 2775.59,1837.28 2773.69,1837.28 2773.69,1835.38 2771.8,1835.38 2771.8,1833.49 2769.9,1833.49 2769.9,1831.59 2768.01,1831.59 2768.01,1829.69 2766.11,1829.69 2766.11,1827.8 2762.32,1827.8 2762.32,1825.9 2760.42,1825.9 2760.42,1824.01 2758.53,1824.01 2758.53,1822.11 2756.63,1822.11 2756.63,1820.21 2754.73,1820.21 2754.73,1818.32 2752.84,1818.32 2752.84,1816.42 2749.05,1816.42 2749.05,1814.53 2747.15,1814.53 2747.15,1812.63 2745.26,1812.63 2745.26,1810.74 2743.36,1810.74 2743.36,1808.84 2739.57,1808.84 2739.57,1806.94 2737.67,1806.94 2737.67,1805.05 2733.88,1805.05 2733.88,1803.15 2731.98,1803.15 2731.98,1801.25 2730.09,1801.25 2730.09,1799.36 2726.3,1799.36 2726.3,1797.46 2724.4,1797.46 2724.4,1795.57 2720.61,1795.57 2720.61,1793.67 2716.82,1793.67 2716.82,1791.78 2714.92,1791.78 2714.92,1789.88 2711.13,1789.88 2711.13,1787.98 2707.34,1787.98 2707.34,1786.09 2703.54,1786.09 2703.54,1784.19 2701.65,1784.19 2701.65,1782.3 2697.86,1782.3 2697.86,1780.4 2694.07,1780.4 2694.07,1778.5 2690.27,1778.5 2690.27,1776.61 2684.59,1776.61 2684.59,1774.71 2680.79,1774.71 2680.79,1772.82 2677,1772.82 2677,1770.92 2673.21,1770.92 2673.21,1769.02 2667.52,1769.02 2667.52,1767.13 2663.73,1767.13 2663.73,1765.23 2658.04,1765.23 2658.04,1763.34 2652.35,1763.34 2652.35,1761.44 2646.67,1761.44 2646.67,1759.55 2639.08,1759.55 2639.08,1757.65 2635.29,1757.65 2635.29,1755.75 2629.6,1755.75 2629.6,1753.86 2618.23,1753.86 2618.23,1751.96 2610.65,1751.96 2610.65,1750.06 2603.06,1750.06 2603.06,1748.17 2593.58,1748.17 2593.58,1746.27 2582.21,1746.27 2582.21,1744.38 2574.62,1744.38 2574.62,1742.48 2548.08,1742.48 2548.08,1740.59 2534.81,1740.59 2534.81,1738.69 2434.32,1738.69 "/>
  <polygon class="fil1" points="2237.15,2436.39 2354.7,2436.39 2354.7,1734.9 2237.15,1734.9 "/>
 </g>
</svg>
