<svg width="30" height="30" viewBox="0 0 30 30" fill="none" xmlns="http://www.w3.org/2000/svg">
<path d="M15.885 16.5L12.435 19.935C12.2944 20.0744 12.1828 20.2403 12.1067 20.4231C12.0305 20.6059 11.9913 20.802 11.9913 21C11.9913 21.198 12.0305 21.3941 12.1067 21.5769C12.1828 21.7597 12.2944 21.9256 12.435 22.065C12.5744 22.2056 12.7403 22.3172 12.9231 22.3933C13.1059 22.4695 13.302 22.5087 13.5 22.5087C13.698 22.5087 13.8941 22.4695 14.0769 22.3933C14.2597 22.3172 14.4256 22.2056 14.565 22.065L20.565 16.065C20.7016 15.9223 20.8086 15.7541 20.88 15.57C21.03 15.2048 21.03 14.7952 20.88 14.43C20.8086 14.2459 20.7016 14.0777 20.565 13.935L14.565 7.935C14.4251 7.79514 14.2591 7.6842 14.0764 7.60851C13.8936 7.53282 13.6978 7.49386 13.5 7.49386C13.3022 7.49386 13.1064 7.53282 12.9236 7.60851C12.7409 7.6842 12.5749 7.79514 12.435 7.935C12.2951 8.07485 12.1842 8.24089 12.1085 8.42362C12.0328 8.60636 11.9939 8.80221 11.9939 9C11.9939 9.19779 12.0328 9.39364 12.1085 9.57637C12.1842 9.7591 12.2951 9.92514 12.435 10.065L15.885 13.5H1.5C1.10218 13.5 0.720644 13.658 0.43934 13.9393C0.158035 14.2206 0 14.6022 0 15C0 15.3978 0.158035 15.7794 0.43934 16.0607C0.720644 16.342 1.10218 16.5 1.5 16.5H15.885ZM15 -3.04739e-06C12.1966 -0.0125187 9.44587 0.760816 7.0597 2.23228C4.67354 3.70375 2.74748 5.81446 1.5 8.325C1.32098 8.68304 1.29152 9.09753 1.41811 9.47729C1.5447 9.85706 1.81696 10.171 2.175 10.35C2.53304 10.529 2.94754 10.5585 3.3273 10.4319C3.70706 10.3053 4.02098 10.033 4.2 9.675C5.14829 7.75998 6.59075 6.13293 8.37832 4.96198C10.1659 3.79103 12.2337 3.11867 14.3681 3.01438C16.5025 2.9101 18.6261 3.37766 20.5193 4.36876C22.4125 5.35986 24.0067 6.83854 25.1372 8.65199C26.2676 10.4654 26.8933 12.5479 26.9496 14.6841C27.0059 16.8203 26.4907 18.9328 25.4573 20.8032C24.4239 22.6737 22.9097 24.2342 21.0713 25.3236C19.2329 26.413 17.1369 26.9918 15 27C12.7633 27.0097 10.5692 26.3885 8.66954 25.2079C6.76985 24.0272 5.24153 22.3348 4.26 20.325C4.08098 19.967 3.76706 19.6947 3.3873 19.5681C3.00754 19.4415 2.59304 19.471 2.235 19.65C1.87696 19.829 1.6047 20.1429 1.47811 20.5227C1.35152 20.9025 1.38098 21.317 1.56 21.675C2.74924 24.0683 4.55628 26.1003 6.79421 27.5611C9.03213 29.0218 11.6197 29.8581 14.2892 29.9835C16.9587 30.1089 19.6132 29.5188 21.9782 28.2743C24.3432 27.0297 26.3328 25.176 27.7411 22.9047C29.1494 20.6335 29.9254 18.0272 29.9887 15.3555C30.0521 12.6838 29.4005 10.0437 28.1014 7.70824C26.8022 5.3728 24.9028 3.42685 22.5994 2.07166C20.296 0.716464 17.6725 0.00125163 15 -3.04739e-06Z" fill="#850C0C"/>
</svg>
