<svg width="61" height="19" viewBox="0 0 61 19" fill="none" xmlns="http://www.w3.org/2000/svg">
<path d="M0.954529 3.19598V0.54541H14.8807V3.19598H9.48578V18H6.34942V3.19598H0.954529Z" fill="#F6F6F6"/>
<path d="M20.8808 18.2556C19.6023 18.2556 18.4944 17.9744 17.5569 17.4119C16.6194 16.8494 15.8921 16.0625 15.3751 15.0511C14.8637 14.0397 14.608 12.8579 14.608 11.5056C14.608 10.1534 14.8637 8.96871 15.3751 7.95166C15.8921 6.93461 16.6194 6.14484 17.5569 5.58234C18.4944 5.01984 19.6023 4.73859 20.8808 4.73859C22.1592 4.73859 23.2671 5.01984 24.2046 5.58234C25.1421 6.14484 25.8665 6.93461 26.3779 7.95166C26.895 8.96871 27.1535 10.1534 27.1535 11.5056C27.1535 12.8579 26.895 14.0397 26.3779 15.0511C25.8665 16.0625 25.1421 16.8494 24.2046 17.4119C23.2671 17.9744 22.1592 18.2556 20.8808 18.2556ZM20.8978 15.784C21.591 15.784 22.1705 15.5937 22.6364 15.213C23.1023 14.8267 23.4489 14.3096 23.6762 13.6619C23.9092 13.0142 24.0256 12.2926 24.0256 11.4971C24.0256 10.696 23.9092 9.97155 23.6762 9.32382C23.4489 8.67041 23.1023 8.15052 22.6364 7.76416C22.1705 7.3778 21.591 7.18462 20.8978 7.18462C20.1876 7.18462 19.5967 7.3778 19.1251 7.76416C18.6592 8.15052 18.3097 8.67041 18.0768 9.32382C17.8495 9.97155 17.7359 10.696 17.7359 11.4971C17.7359 12.2926 17.8495 13.0142 18.0768 13.6619C18.3097 14.3096 18.6592 14.8267 19.1251 15.213C19.5967 15.5937 20.1876 15.784 20.8978 15.784Z" fill="#F6F6F6"/>
<path d="M35.4632 18H29.5485V0.54541H35.5825C37.3155 0.54541 38.8041 0.894842 40.0485 1.59371C41.2985 2.28689 42.2587 3.28405 42.9291 4.58518C43.5996 5.88632 43.9348 7.44314 43.9348 9.25564C43.9348 11.0738 43.5967 12.6363 42.9206 13.9431C42.2502 15.25 41.2814 16.2528 40.0144 16.9517C38.753 17.6505 37.236 18 35.4632 18ZM32.7104 15.2642H35.3098C36.5257 15.2642 37.5399 15.0426 38.3524 14.5994C39.1649 14.1505 39.7757 13.4829 40.1848 12.5965C40.5939 11.7045 40.7985 10.5909 40.7985 9.25564C40.7985 7.92041 40.5939 6.81246 40.1848 5.93177C39.7757 5.04541 39.1706 4.38348 38.3695 3.94598C37.574 3.5028 33.8922 3.28121 32.7104 3.28121V15.2642Z" fill="#F6F6F6"/>
<path d="M52.1529 18.2556C50.8745 18.2556 49.7666 17.9744 48.8291 17.4119C47.8916 16.8494 47.1643 16.0625 46.6473 15.0511C46.1359 14.0397 45.8802 12.8579 45.8802 11.5056C45.8802 10.1534 46.1359 8.96871 46.6473 7.95166C47.1643 6.93461 47.8916 6.14484 48.8291 5.58234C49.7666 5.01984 50.8745 4.73859 52.1529 4.73859C53.4313 4.73859 54.5393 5.01984 55.4768 5.58234C56.4143 6.14484 57.1387 6.93461 57.6501 7.95166C58.1671 8.96871 58.4257 10.1534 58.4257 11.5056C58.4257 12.8579 58.1671 14.0397 57.6501 15.0511C57.1387 16.0625 56.4143 16.8494 55.4768 17.4119C54.5393 17.9744 53.4313 18.2556 52.1529 18.2556ZM52.17 15.784C52.8632 15.784 53.4427 15.5937 53.9086 15.213C54.3745 14.8267 54.7211 14.3096 54.9484 13.6619C55.1813 13.0142 55.2978 12.2926 55.2978 11.4971C55.2978 10.696 55.1813 9.97155 54.9484 9.32382C54.7211 8.67041 54.3745 8.15052 53.9086 7.76416C53.4427 7.3778 52.8632 7.18462 52.17 7.18462C51.4598 7.18462 50.8688 7.3778 50.3973 7.76416C49.9313 8.15052 49.5819 8.67041 49.349 9.32382C49.1217 9.97155 49.008 10.696 49.008 11.4971C49.008 12.2926 49.1217 13.0142 49.349 13.6619C49.5819 14.3096 49.9313 14.8267 50.3973 15.213C50.8688 15.5937 51.4598 15.784 52.17 15.784Z" fill="#F6F6F6"/>
<rect x="32" width="2" height="19" fill="#21212B"/>
<rect x="29" width="3" height="18" fill="#194FD9"/>
</svg>
