<?xml version="1.0" standalone="no"?>
<!DOCTYPE svg PUBLIC "-//W3C//DTD SVG 20010904//EN"
 "http://www.w3.org/TR/2001/REC-SVG-20010904/DTD/svg10.dtd">
<svg version="1.0" xmlns="http://www.w3.org/2000/svg"
 width="256.000000pt" height="256.000000pt" viewBox="0 0 256.000000 256.000000"
 preserveAspectRatio="xMidYMid meet">
<metadata>
Created by potrace 1.14, written by Peter Selinger 2001-2017
</metadata>
<g transform="translate(0.000000,256.000000) scale(0.100000,-0.100000)"
fill="#000000" stroke="none">
<path d="M1116 2549 c-288 -40 -544 -169 -748 -376 -178 -181 -292 -397 -344
-648 -25 -123 -26 -366 -1 -485 56 -265 174 -484 359 -667 185 -182 399 -296
653 -349 123 -25 366 -26 485 -1 265 56 484 174 667 359 182 185 296 399 349
653 25 123 26 366 1 485 -109 515 -489 903 -992 1011 -106 23 -328 32 -429 18z
m414 -697 c199 -71 314 -196 365 -397 24 -93 24 -284 1 -380 -50 -208 -181
-350 -376 -410 -32 -10 -108 -19 -182 -22 l-128 -6 0 100 0 101 113 3 c103 4
118 7 180 37 77 38 124 92 158 180 26 70 37 239 20 327 -23 127 -105 241 -190
265 -20 6 -91 16 -158 22 l-123 12 0 99 0 100 133 -6 c96 -3 147 -10 187 -25z"/>
</g>
</svg>
